<svg xmlns="http://www.w3.org/2000/svg" viewBox="0 0 199.88 121.64"><defs><style>.cls-1{opacity:0.98;}.cls-2{font-size:2.98px;font-family:Montserrat-Regular, Montserrat;}.cls-2,.cls-3{fill:#fff;}</style></defs><title>13 production logo</title><g id="Layer_2" data-name="Layer 2"><g id="Layer_1-2" data-name="Layer 1"><g class="cls-1"><text class="cls-2" transform="translate(134 87.84)">C</text><circle class="cls-3" cx="135.18" cy="86.81" r="1.59"/><polygon class="cls-3" points="6.09 88.27 12.21 88.27 12.21 101.92 16.1 101.92 16.1 88.27 21.48 88.27 21.48 85.09 8.81 85.09 6.09 88.27"/><polygon class="cls-3" points="35.11 91.73 27.47 91.73 27.47 85.09 23.57 85.09 23.57 101.92 27.47 101.92 27.47 95.02 35.11 95.02 35.11 101.92 39 101.92 39 85.09 35.11 85.09 35.11 91.73"/><rect class="cls-3" x="42.99" y="85.09" width="3.89" height="16.82"/><path class="cls-3" d="M64.56,94.43a5.7,5.7,0,0,0,.9-3.23A5.88,5.88,0,0,0,64.57,88,5.81,5.81,0,0,0,62,85.84a9.34,9.34,0,0,0-3.89-.75H50.87v16.83h3.9V97.23h3.58l3.24,4.69h4.18L62,96.51A5.71,5.71,0,0,0,64.56,94.43Zm-4-1.07a4.07,4.07,0,0,1-2.67.77H54.77V88.27h3.17a4.12,4.12,0,0,1,2.67.75,3,3,0,0,1,0,4.34Z"/><polygon class="cls-3" points="66.4 88.27 71.78 88.27 71.78 101.92 75.67 101.92 75.67 88.27 81.06 88.27 81.06 85.09 66.4 85.09 66.4 88.27"/><polygon class="cls-3" points="87.02 94.9 94.83 94.9 94.83 91.87 87.02 91.87 87.02 88.22 95.86 88.22 95.86 85.09 83.15 85.09 83.15 101.92 96.17 101.92 96.17 98.79 87.02 98.79 87.02 94.9"/><polygon class="cls-3" points="103.14 94.9 110.95 94.9 110.95 91.87 103.14 91.87 103.14 88.22 111.98 88.22 111.98 85.09 99.27 85.09 99.27 101.92 112.3 101.92 112.3 98.79 103.14 98.79 103.14 94.9"/><polygon class="cls-3" points="130.82 85.09 126.98 85.09 126.98 95.31 118.62 85.09 115.4 85.09 115.4 101.92 119.24 101.92 119.24 91.7 126.97 101.12 130.82 96.14 130.82 85.09"/><path class="cls-3" d="M3.05,121.09a9.21,9.21,0,0,1-3-1.44l1.35-3A9.1,9.1,0,0,0,4,118a10,10,0,0,0,3,.49A4.77,4.77,0,0,0,9.49,118a1.5,1.5,0,0,0,.81-1.33,1.26,1.26,0,0,0-.48-1A3.53,3.53,0,0,0,8.6,115c-.5-.16-1.17-.34-2-.54a28,28,0,0,1-3.2-.93A5.16,5.16,0,0,1,1.24,112a4,4,0,0,1-.9-2.74,4.72,4.72,0,0,1,.81-2.7,5.41,5.41,0,0,1,2.43-1.92,9.84,9.84,0,0,1,4-.71,13.16,13.16,0,0,1,3.2.39,9.31,9.31,0,0,1,2.74,1.12l-1.22,3a9.6,9.6,0,0,0-4.75-1.34,4.5,4.5,0,0,0-2.45.53,1.66,1.66,0,0,0-.8,1.42,1.39,1.39,0,0,0,.92,1.31,14.06,14.06,0,0,0,2.8.85,28,28,0,0,1,3.2.93,5.25,5.25,0,0,1,2.14,1.46,3.93,3.93,0,0,1,.9,2.72,4.73,4.73,0,0,1-.82,2.68A5.65,5.65,0,0,1,11,120.93a10.06,10.06,0,0,1-4,.71A14.22,14.22,0,0,1,3.05,121.09Z"/><path class="cls-3" d="M20.25,107.45H14.77v-3.23H29.69v3.23H24.22v13.89h-4Z"/><path class="cls-3" d="M33.43,119.61a7.8,7.8,0,0,1-2.05-5.8v-9.59h4v9.44q0,4.61,3.81,4.6A3.58,3.58,0,0,0,42,117.15a5.21,5.21,0,0,0,1-3.49v-9.44h3.91v9.59a7.84,7.84,0,0,1-2,5.8,7.77,7.77,0,0,1-5.71,2A7.75,7.75,0,0,1,33.43,119.61Z"/><path class="cls-3" d="M50.8,104.22h7.78a10.93,10.93,0,0,1,4.93,1.06,8,8,0,0,1,3.33,3,9.17,9.17,0,0,1,0,9,8,8,0,0,1-3.33,3,10.93,10.93,0,0,1-4.93,1.06H50.8Zm7.59,13.87a5.76,5.76,0,0,0,4.09-1.43,5.68,5.68,0,0,0,0-7.76,5.76,5.76,0,0,0-4.09-1.43H54.77v10.62Z"/><path class="cls-3" d="M71,104.22h4v17.12H71Z"/><path class="cls-3" d="M82.52,120.49a8.53,8.53,0,0,1-3.35-3.17,9.06,9.06,0,0,1,0-9.08,8.44,8.44,0,0,1,3.35-3.16,10.59,10.59,0,0,1,9.6,0,8.86,8.86,0,0,1,3.35,12.24,8.73,8.73,0,0,1-3.35,3.17,10.59,10.59,0,0,1-9.6,0Zm7.54-2.93A4.91,4.91,0,0,0,92,115.62a6.11,6.11,0,0,0,0-5.68A4.91,4.91,0,0,0,90.06,108a5.71,5.71,0,0,0-5.48,0,5,5,0,0,0-1.92,1.94,6.19,6.19,0,0,0,0,5.68,5,5,0,0,0,1.92,1.94,5.71,5.71,0,0,0,5.48,0Z"/><path class="cls-3" d="M101.38,121.09a9.21,9.21,0,0,1-3-1.44l1.35-3a9.1,9.1,0,0,0,2.61,1.3,10,10,0,0,0,3,.49,4.77,4.77,0,0,0,2.49-.51,1.5,1.5,0,0,0,.81-1.33,1.26,1.26,0,0,0-.48-1,3.53,3.53,0,0,0-1.22-.65c-.5-.16-1.17-.34-2-.54a28,28,0,0,1-3.2-.93A5.16,5.16,0,0,1,99.57,112a4,4,0,0,1-.9-2.74,4.72,4.72,0,0,1,.81-2.7,5.41,5.41,0,0,1,2.43-1.92,9.84,9.84,0,0,1,4-.71,13.16,13.16,0,0,1,3.2.39,9.31,9.31,0,0,1,2.74,1.12l-1.22,3a9.6,9.6,0,0,0-4.75-1.34,4.5,4.5,0,0,0-2.45.53,1.66,1.66,0,0,0-.8,1.42,1.39,1.39,0,0,0,.92,1.31,14.06,14.06,0,0,0,2.8.85,28,28,0,0,1,3.2.93,5.25,5.25,0,0,1,2.14,1.46,3.93,3.93,0,0,1,.9,2.72,4.73,4.73,0,0,1-.82,2.68,5.65,5.65,0,0,1-2.46,1.92,10.06,10.06,0,0,1-4,.71A14.22,14.22,0,0,1,101.38,121.09Z"/><polygon class="cls-3" points="199.88 0 180.63 0 180.63 33.71 199.88 10.29 199.88 0"/><polygon class="cls-3" points="141.68 0 141.68 82.98 161.25 56.56 160.92 0 141.68 0"/><rect class="cls-3" x="102.72" width="19.24" height="83.15"/><polygon class="cls-3" points="93.1 0 72.31 0 53.54 26.96 34.42 0 12.56 0 41.78 40.86 11.02 83.15 33.11 83.15 52.83 54.28 72.9 83.15 95.11 83.15 64.11 40.15 93.1 0"/></g></g></g></svg>