<svg xmlns="http://www.w3.org/2000/svg" xmlns:xlink="http://www.w3.org/1999/xlink" viewBox="0 0 322.35 265.97"><defs><style>.cls-1{fill:none;}.cls-2{fill:#fff;}.cls-3{opacity:0.63;}.cls-4{clip-path:url(#clip-path);}.cls-5{fill:#010101;}.cls-6{clip-path:url(#clip-path-2);}.cls-7{clip-path:url(#clip-path-3);}.cls-8{clip-path:url(#clip-path-4);}.cls-9{clip-path:url(#clip-path-5);}.cls-10{clip-path:url(#clip-path-6);}.cls-11{clip-path:url(#clip-path-7);}.cls-12{clip-path:url(#clip-path-8);}.cls-13{clip-path:url(#clip-path-9);}.cls-14{clip-path:url(#clip-path-10);}.cls-15{opacity:0.72;}.cls-16{clip-path:url(#clip-path-11);}.cls-17{opacity:0.12;}.cls-18{clip-path:url(#clip-path-12);}.cls-19{opacity:0.07;}.cls-20{clip-path:url(#clip-path-13);}.cls-21{clip-path:url(#clip-path-14);}.cls-22{clip-path:url(#clip-path-15);}.cls-23{clip-path:url(#clip-path-16);}.cls-24{clip-path:url(#clip-path-17);}.cls-25{clip-path:url(#clip-path-18);}.cls-26{clip-path:url(#clip-path-19);}.cls-27{clip-path:url(#clip-path-20);}.cls-28{clip-path:url(#clip-path-21);}.cls-29{clip-path:url(#clip-path-22);}.cls-30{clip-path:url(#clip-path-23);}.cls-31{clip-path:url(#clip-path-24);}.cls-32{clip-path:url(#clip-path-25);}.cls-33{clip-path:url(#clip-path-26);}.cls-34{clip-path:url(#clip-path-27);}.cls-35{clip-path:url(#clip-path-28);}.cls-36{clip-path:url(#clip-path-29);}.cls-37{clip-path:url(#clip-path-30);}</style><clipPath id="clip-path"><rect class="cls-1" x="87.95" y="229.17" width="0.98" height="2.16"/></clipPath><clipPath id="clip-path-2"><rect class="cls-1" x="132.84" y="230.35" width="6.84" height="0.98"/></clipPath><clipPath id="clip-path-3"><rect class="cls-1" x="138.73" y="225.01" width="0.43" height="0.43"/></clipPath><clipPath id="clip-path-4"><rect class="cls-1" x="313.63" y="218.84" width="8.73" height="12.49"/></clipPath><clipPath id="clip-path-5"><rect class="cls-1" x="311.89" y="222.32" width="0.98" height="9.01"/></clipPath><clipPath id="clip-path-6"><rect class="cls-1" x="263.38" y="218.9" width="12.42" height="12.43"/></clipPath><clipPath id="clip-path-7"><rect class="cls-1" x="225.29" y="219.61" width="2.18" height="2.48"/></clipPath><clipPath id="clip-path-8"><rect class="cls-1" x="219.22" y="224.15" width="8.26" height="7.19"/></clipPath><clipPath id="clip-path-9"><rect class="cls-1" x="176.08" y="227.62" width="0.98" height="3.71"/></clipPath><clipPath id="clip-path-10"><rect class="cls-1" x="178.46" y="221.02" width="5.51" height="10.31"/></clipPath><clipPath id="clip-path-11"><rect class="cls-1" x="71.88" y="259.51" width="178.6" height="6.46"/></clipPath><clipPath id="clip-path-12"><rect class="cls-1" x="80.18" y="44.49" width="124.8" height="115"/></clipPath><clipPath id="clip-path-13"><rect class="cls-1" x="83.33" y="23.08" width="144.9" height="152.48"/></clipPath><clipPath id="clip-path-14"><rect class="cls-1" x="83.33" y="49.72" width="120.36" height="125.85"/></clipPath><clipPath id="clip-path-15"><rect class="cls-1" x="72.72" y="57.59" width="153.46" height="141.83"/></clipPath><clipPath id="clip-path-16"><rect class="cls-1" x="81.45" y="88.01" width="131.41" height="111.42"/></clipPath><clipPath id="clip-path-17"><rect class="cls-1" x="66.6" y="39.58" width="138.34" height="153.99"/></clipPath><clipPath id="clip-path-18"><rect class="cls-1" x="87.02" y="69.17" width="117.17" height="124.4"/></clipPath><clipPath id="clip-path-19"><rect class="cls-1" x="86.38" y="25.43" width="154.05" height="137.31"/></clipPath><clipPath id="clip-path-20"><rect class="cls-1" x="114.85" y="46.97" width="125.58" height="115.36"/></clipPath><clipPath id="clip-path-21"><rect class="cls-1" x="114.84" y="32.67" width="140.91" height="153.66"/></clipPath><clipPath id="clip-path-22"><rect class="cls-1" x="145.32" y="42.16" width="110.43" height="131.75"/></clipPath><clipPath id="clip-path-23"><rect class="cls-1" x="88.08" y="40.37" width="152.8" height="144.1"/></clipPath><clipPath id="clip-path-24"><rect class="cls-1" x="115.87" y="40.37" width="125.01" height="120.72"/></clipPath><clipPath id="clip-path-25"><rect class="cls-1" x="80.18" y="6.33" width="146.86" height="151.48"/></clipPath><clipPath id="clip-path-26"><rect class="cls-1" x="98.36" y="6.33" width="124.8" height="121.76"/></clipPath><clipPath id="clip-path-27"><rect class="cls-1" x="93.72" width="149.71" height="149.19"/></clipPath><clipPath id="clip-path-28"><rect class="cls-1" x="99.38" width="128.06" height="118.43"/></clipPath><clipPath id="clip-path-29"><rect class="cls-1" x="82.59" y="23.46" width="151.07" height="147.5"/></clipPath><clipPath id="clip-path-30"><rect class="cls-1" x="82.59" y="23.46" width="125.16" height="122.08"/></clipPath></defs><title>Asset 9</title><g id="Layer_2" data-name="Layer 2"><g id="Layer_1-2" data-name="Layer 1"><rect class="cls-2" y="218.84" width="0.98" height="12.49"/><polygon class="cls-2" points="37.8 218.84 38.23 218.84 44.34 224.99 50.46 218.84 50.89 218.84 50.89 231.34 49.91 231.34 49.91 220.84 44.34 226.39 38.78 220.84 38.78 231.34 37.8 231.34 37.8 218.84"/><path class="cls-2" d="M88.94,226.22h3.11a3.69,3.69,0,1,0,0-7.38H88v11.32l1-1Zm0-6.43H92a2.63,2.63,0,0,1,2.74,2.73,2.69,2.69,0,0,1-2.74,2.7h-3.1Z"/><polygon class="cls-2" points="88.94 231.34 88.94 229.17 87.95 230.16 87.95 231.34 88.94 231.34"/><g class="cls-3"><g class="cls-4"><polygon class="cls-5" points="88.94 231.34 88.94 229.17 87.95 230.16 87.95 231.34 88.94 231.34"/></g></g><polygon class="cls-2" points="132.91 230.35 132.91 225.44 138.73 225.44 139.16 225.01 139.16 224.45 132.91 224.45 132.91 219.82 139.68 219.82 139.68 218.84 131.93 218.84 131.93 231.34 132.84 231.34 133.82 230.35 132.91 230.35"/><polygon class="cls-2" points="139.68 230.35 133.82 230.35 132.84 231.34 139.68 231.34 139.68 230.35"/><g class="cls-3"><g class="cls-6"><polygon class="cls-5" points="139.68 230.35 133.82 230.35 132.84 231.34 139.68 231.34 139.68 230.35"/></g></g><polygon class="cls-2" points="139.16 225.44 139.16 225.01 138.73 225.44 139.16 225.44"/><g class="cls-3"><g class="cls-7"><polygon class="cls-5" points="139.16 225.44 139.16 225.01 138.73 225.44 139.16 225.44"/></g></g><polygon class="cls-2" points="312.87 220.62 313.63 221.57 314.31 220.89 312.69 218.84 311.89 218.84 311.89 223.31 312.87 222.32 312.87 220.62"/><polygon class="cls-2" points="321.37 231.34 322.35 231.34 322.35 218.84 321.37 218.84 321.37 229.78 314.31 220.89 313.63 221.57 321.37 231.34"/><g class="cls-3"><g class="cls-8"><polygon class="cls-5" points="321.37 231.34 322.35 231.34 322.35 218.84 321.37 218.84 321.37 229.78 314.31 220.89 313.63 221.57 321.37 231.34"/></g></g><polygon class="cls-2" points="312.87 231.34 312.87 222.32 311.89 223.31 311.89 231.34 312.87 231.34"/><g class="cls-3"><g class="cls-9"><polygon class="cls-5" points="312.87 231.34 312.87 222.32 311.89 223.31 311.89 231.34 312.87 231.34"/></g></g><path class="cls-2" d="M269.42,219.87l1-1a7.36,7.36,0,0,0-.82-.06,6.25,6.25,0,0,0-6.24,6.25,5.55,5.55,0,0,0,.06.82l1-1a5.2,5.2,0,0,1,5.06-5.06"/><path class="cls-2" d="M269.56,231.34a6.25,6.25,0,0,0,.82-12.44l-1,1h.16a5.24,5.24,0,1,1-5.23,5.23c0-.06,0-.11,0-.16l-1,1a6.24,6.24,0,0,0,6.18,5.43"/><g class="cls-3"><g class="cls-10"><path class="cls-5" d="M269.56,231.34a6.25,6.25,0,0,0,.82-12.44l-1,1h.16a5.24,5.24,0,1,1-5.23,5.23c0-.06,0-.11,0-.16l-1,1a6.24,6.24,0,0,0,6.18,5.43"/></g></g><path class="cls-2" d="M220.19,222.27c0-1.45,1.35-2.41,3.11-2.41a4.15,4.15,0,0,1,2,.46l.71-.71a5,5,0,0,0-2.68-.77c-2.43,0-4.12,1.53-4.12,3.47a3.13,3.13,0,0,0,1.56,2.54l.7-.7a2.29,2.29,0,0,1-1.27-1.88"/><path class="cls-2" d="M226.48,222.09h1a3,3,0,0,0-1.47-2.48l-.71.71a2,2,0,0,1,1.19,1.77"/><g class="cls-3"><g class="cls-11"><path class="cls-5" d="M226.48,222.09h1a3,3,0,0,0-1.47-2.48l-.71.71a2,2,0,0,1,1.19,1.77"/></g></g><path class="cls-2" d="M226.5,227.94c0,1.53-1.66,2.41-3.26,2.41s-3-1-3-2.23h-1c0,1.7,1.8,3.21,4.1,3.21s4.16-1.4,4.16-3.39c0-1.6-1.6-3.33-4.11-3.33a3.93,3.93,0,0,1-1.91-.46l-.7.7a4.56,4.56,0,0,0,2.43.74c2.23,0,3.31,1.3,3.31,2.35"/><g class="cls-3"><g class="cls-12"><path class="cls-5" d="M226.5,227.94c0,1.53-1.66,2.41-3.26,2.41s-3-1-3-2.23h-1c0,1.7,1.8,3.21,4.1,3.21s4.16-1.4,4.16-3.39c0-1.6-1.6-3.33-4.11-3.33a3.93,3.93,0,0,1-1.91-.46l-.7.7a4.56,4.56,0,0,0,2.43.74c2.23,0,3.31,1.3,3.31,2.35"/></g></g><path class="cls-2" d="M177.06,226.22h1.4l1-1h-2.4v-5.43h3.17a2.73,2.73,0,0,1,2.64,2l.79-.79a3.61,3.61,0,0,0-3.3-2.18h-4.28v9.76l1-1Z"/><polygon class="cls-2" points="177.06 231.34 177.06 227.62 176.08 228.6 176.08 231.34 177.06 231.34"/><g class="cls-3"><g class="cls-13"><polygon class="cls-5" points="177.06 231.34 177.06 227.62 176.08 228.6 176.08 231.34 177.06 231.34"/></g></g><path class="cls-2" d="M183,222.52a2.69,2.69,0,0,1-2.75,2.7h-.76l-1,1H179l3,5.12h1.31l-3-5.12a3.68,3.68,0,0,0,3.61-3.7,3.76,3.76,0,0,0-.31-1.5l-.79.79a2.77,2.77,0,0,1,.1.71"/><g class="cls-3"><g class="cls-14"><path class="cls-5" d="M183,222.52a2.69,2.69,0,0,1-2.75,2.7h-.76l-1,1H179l3,5.12h1.31l-3-5.12a3.68,3.68,0,0,0,3.61-3.7,3.76,3.76,0,0,0-.31-1.5l-.79.79a2.77,2.77,0,0,1,.1.71"/></g></g><g class="cls-15"><g class="cls-16"><rect class="cls-2" x="71.88" y="259.51" width="0.51" height="6.46"/><polygon class="cls-2" points="85.51 259.51 89.51 259.51 89.51 260.02 86.02 260.02 86.02 262.41 89.25 262.41 89.25 262.92 86.02 262.92 86.02 265.46 89.51 265.46 89.51 265.97 85.51 265.97 85.51 259.51"/><polygon class="cls-2" points="99.58 265.97 97.54 263.05 95.5 265.97 94.87 265.97 97.22 262.6 95.06 259.51 95.69 259.51 97.54 262.15 99.39 259.51 100.02 259.51 97.85 262.6 100.21 265.97 99.58 265.97"/><rect class="cls-2" x="105.91" y="259.51" width="0.51" height="6.46"/><path class="cls-2" d="M112.19,264.31h.51c0,.63.78,1.15,1.57,1.15S116,265,116,264.21c0-.54-.56-1.21-1.72-1.21a2,2,0,0,1-2-1.7,1.91,1.91,0,0,1,2.12-1.79,2,2,0,0,1,2.15,1.68H116c0-.69-.74-1.15-1.65-1.15s-1.61.5-1.61,1.25c0,.51.55,1.2,1.65,1.2a2,2,0,0,1,2.12,1.72,2,2,0,0,1-2.15,1.76,2,2,0,0,1-2.12-1.66"/><polygon class="cls-2" points="124.09 260.02 121.82 260.02 121.82 259.51 126.88 259.51 126.88 260.02 124.6 260.02 124.6 265.97 124.09 265.97 124.09 260.02"/><polygon class="cls-2" points="141.05 260.02 138.77 260.02 138.77 259.51 143.84 259.51 143.84 260.02 141.55 260.02 141.55 265.97 141.05 265.97 141.05 260.02"/><polygon class="cls-2" points="154.94 259.51 154.94 265.97 154.43 265.97 154.43 262.92 150.03 262.92 150.03 265.97 149.53 265.97 149.53 259.51 150.03 259.51 150.03 262.41 154.43 262.41 154.43 259.51 154.94 259.51"/><path class="cls-2" d="M161.31,259.51h2.21a1.91,1.91,0,0,1,0,3.81l1.53,2.65h-.68l-1.53-2.65h-1V266h-.51Zm2.14,3.3a1.39,1.39,0,0,0,1.42-1.4,1.4,1.4,0,0,0-1.42-1.41h-1.63v2.81Z"/><path class="cls-2" d="M174,266a3.23,3.23,0,1,1,3.22-3.23A3.23,3.23,0,0,1,174,266m0-5.93a2.71,2.71,0,1,0,2.7,2.7A2.69,2.69,0,0,0,174,260"/><path class="cls-2" d="M182.64,263.39v-3.88h.51v3.88a2,2,0,1,0,4.07,0v-3.88h.51v3.88a2.55,2.55,0,1,1-5.09,0"/><path class="cls-2" d="M199.67,262.74a3.23,3.23,0,1,1-.95-2.29l-.36.36a2.74,2.74,0,0,0-1.93-.78,2.72,2.72,0,1,0,2.72,3h-2.71v-.51h3.23v.22"/><polygon class="cls-2" points="210.99 259.51 210.99 265.97 210.48 265.97 210.48 262.92 206.08 262.92 206.08 265.97 205.57 265.97 205.57 259.51 206.08 259.51 206.08 262.41 210.48 262.41 210.48 259.51 210.99 259.51"/><polygon class="cls-2" points="225.67 263.3 223.48 259.51 224.08 259.51 225.94 262.73 227.78 259.51 228.38 259.51 226.18 263.3 226.18 265.97 225.67 265.97 225.67 263.3"/><path class="cls-2" d="M236.7,266a3.23,3.23,0,1,1,3.22-3.23A3.23,3.23,0,0,1,236.7,266m0-5.93a2.71,2.71,0,1,0,2.7,2.7,2.69,2.69,0,0,0-2.7-2.7"/><path class="cls-2" d="M245.39,263.39v-3.88h.51v3.88a2,2,0,1,0,4.07,0v-3.88h.51v3.88a2.55,2.55,0,1,1-5.09,0"/></g></g><path class="cls-2" d="M233,145.64,165.59,28.12a9.28,9.28,0,0,0-16.08,0L140,44.49l63.5,110a11.31,11.31,0,0,1,1.51,5l19.95,0a9.28,9.28,0,0,0,8.08-13.9"/><path class="cls-2" d="M140,44.49,81.45,145.23a9.29,9.29,0,0,0,8,14l115.54.31a11.31,11.31,0,0,0-1.51-5Z"/><g class="cls-17"><g class="cls-18"><path class="cls-5" d="M140,44.49,81.45,145.23a9.29,9.29,0,0,0,8,14l115.54.31a11.31,11.31,0,0,0-1.51-5Z"/></g></g><g class="cls-19"><g class="cls-20"><path class="cls-2" d="M224.77,110.07,119.19,25.14a9.28,9.28,0,0,0-15,5.82l-2.91,18.76,99.18,79.34a11.12,11.12,0,0,1,3.22,4.11L222.3,126a9.29,9.29,0,0,0,2.47-15.89"/><path class="cls-2" d="M101.29,49.72,83.44,164.85A9.28,9.28,0,0,0,96,174.92l107.72-41.75a11.14,11.14,0,0,0-3.22-4.11Z"/><g class="cls-17"><g class="cls-21"><path class="cls-5" d="M101.29,49.72,83.44,164.85A9.28,9.28,0,0,0,96,174.92l107.72-41.75a11.14,11.14,0,0,0-3.22-4.11Z"/></g></g></g></g><g class="cls-19"><g class="cls-22"><path class="cls-2" d="M217.77,70.56,82.9,57.64a9.28,9.28,0,0,0-9.33,13.09L81.45,88,207.91,99.78a11.28,11.28,0,0,1,5,1.66l11.58-16.25a9.28,9.28,0,0,0-6.68-14.63"/><path class="cls-2" d="M81.45,88l48.36,106a9.29,9.29,0,0,0,16,1.53l67.05-94.09a11.28,11.28,0,0,0-5-1.66Z"/><g class="cls-17"><g class="cls-23"><path class="cls-5" d="M81.45,88l48.36,106a9.29,9.29,0,0,0,16,1.53l67.05-94.09a11.28,11.28,0,0,0-5-1.66Z"/></g></g></g></g><g class="cls-19"><g class="cls-24"><path class="cls-2" d="M191.32,40.67,71.54,104a9.28,9.28,0,0,0-.6,16.07L87,130.17,199.14,70.5a11.11,11.11,0,0,1,5.05-1.33l.75-20a9.29,9.29,0,0,0-13.62-8.55"/><path class="cls-2" d="M87,130.17l98.66,62a9.29,9.29,0,0,0,14.22-7.52l4.29-115.45a11.11,11.11,0,0,0-5.05,1.33Z"/><g class="cls-17"><g class="cls-25"><path class="cls-5" d="M87,130.17l98.66,62a9.29,9.29,0,0,0,14.22-7.52l4.29-115.45a11.11,11.11,0,0,0-5.05,1.33Z"/></g></g></g></g><g class="cls-19"><g class="cls-26"><path class="cls-2" d="M152.79,30.24,87.54,149a9.29,9.29,0,0,0,8.33,13.76l19-.4L175.72,50.86A11.26,11.26,0,0,1,179.21,47L168.87,29.9a9.29,9.29,0,0,0-16.08.34"/><path class="cls-2" d="M114.85,162.34l116.48-2.46a9.29,9.29,0,0,0,7.74-14.1L179.21,47a11.26,11.26,0,0,0-3.49,3.89Z"/><g class="cls-17"><g class="cls-27"><path class="cls-5" d="M114.85,162.34l116.48-2.46a9.29,9.29,0,0,0,7.74-14.1L179.21,47a11.26,11.26,0,0,0-3.49,3.89Z"/></g></g></g></g><g class="cls-19"><g class="cls-28"><path class="cls-2" d="M114.87,42.71l10.75,135.06a9.29,9.29,0,0,0,14.52,6.91l15.64-10.77L145.36,47.33a11.31,11.31,0,0,1,.78-5.17l-18-8.57a9.29,9.29,0,0,0-13.25,9.12"/><path class="cls-2" d="M155.78,173.91l95.95-66.07a9.28,9.28,0,0,0-1.27-16L146.14,42.16a11.18,11.18,0,0,0-.78,5.17Z"/><g class="cls-17"><g class="cls-29"><path class="cls-5" d="M155.78,173.91l95.95-66.07a9.28,9.28,0,0,0-1.27-16L146.14,42.16a11.18,11.18,0,0,0-.78,5.17Z"/></g></g></g></g><g class="cls-19"><g class="cls-30"><path class="cls-2" d="M90.05,74l83.21,106.92a9.29,9.29,0,0,0,15.93-2.2l7.14-17.59-78.27-100a11.11,11.11,0,0,1-2.19-4.74L96.1,59.06a9.28,9.28,0,0,0-6,14.9"/><path class="cls-2" d="M196.33,161.09,240.18,53.15a9.29,9.29,0,0,0-9.88-12.69L115.87,56.32a11.11,11.11,0,0,0,2.19,4.74Z"/><g class="cls-17"><g class="cls-31"><path class="cls-5" d="M196.33,161.09,240.18,53.15a9.29,9.29,0,0,0-9.88-12.69L115.87,56.32a11.11,11.11,0,0,0,2.19,4.74Z"/></g></g></g></g><g class="cls-19"><g class="cls-32"><path class="cls-2" d="M86.48,113.71,214.77,157.3a9.28,9.28,0,0,0,12.09-10.6l-3.7-18.62L102.8,87.54a11.22,11.22,0,0,1-4.44-2.75l-15,13.15a9.29,9.29,0,0,0,3.13,15.77"/><path class="cls-2" d="M223.16,128.08,200.47,13.81a9.29,9.29,0,0,0-15.23-5.17L98.36,84.79a11.22,11.22,0,0,0,4.44,2.75Z"/><g class="cls-17"><g class="cls-33"><path class="cls-5" d="M223.16,128.08,200.47,13.81a9.29,9.29,0,0,0-15.23-5.17L98.36,84.79a11.22,11.22,0,0,0,4.44,2.75Z"/></g></g></g></g><g class="cls-19"><g class="cls-34"><path class="cls-2" d="M105.35,148.88l131.13-34.09a9.28,9.28,0,0,0,4.28-15.5L227.44,85.77,104.6,118.05a11.16,11.16,0,0,1-5.22.14l-5.31,19.24a9.28,9.28,0,0,0,11.28,11.45"/><path class="cls-2" d="M227.44,85.77l-81.77-83a9.28,9.28,0,0,0-15.56,4.05L99.38,118.19a11.16,11.16,0,0,0,5.22-.14Z"/><g class="cls-17"><g class="cls-35"><path class="cls-5" d="M227.44,85.77l-81.77-83a9.28,9.28,0,0,0-15.56,4.05L99.38,118.19a11.16,11.16,0,0,0,5.22-.14Z"/></g></g></g></g><g class="cls-19"><g class="cls-36"><path class="cls-2" d="M140.45,167.89,231.26,67.34A9.28,9.28,0,0,0,226.32,52l-18.57-4-84.87,94.49a11.2,11.2,0,0,1-4.29,3l6.14,19a9.28,9.28,0,0,0,15.72,3.37"/><path class="cls-2" d="M207.75,48.06,93.83,23.67A9.28,9.28,0,0,0,83.05,35.6l35.54,109.93a11.2,11.2,0,0,0,4.29-3Z"/><g class="cls-17"><g class="cls-37"><path class="cls-5" d="M207.75,48.06,93.83,23.67A9.28,9.28,0,0,0,83.05,35.6l35.54,109.93a11.2,11.2,0,0,0,4.29-3Z"/></g></g></g></g></g></g></svg>