<svg xmlns="http://www.w3.org/2000/svg" xmlns:xlink="http://www.w3.org/1999/xlink" viewBox="0 0 154.09 136.09"><defs><style>.cls-1{fill:none;}.cls-2{fill:#fff;}.cls-3{opacity:0.12;}.cls-4{clip-path:url(#clip-path);}.cls-5{fill:#010101;}</style><clipPath id="clip-path" transform="translate(0)"><rect class="cls-1" y="21.04" width="124.8" height="115"/></clipPath></defs><title>imp 1</title><g id="Layer_2" data-name="Layer 2"><g id="Layer_1-2" data-name="Layer 1"><path class="cls-2" d="M152.84,122.18,85.41,4.66a9.29,9.29,0,0,0-16.08,0L59.79,21,123.3,131a11.2,11.2,0,0,1,1.5,5l20,.06a9.29,9.29,0,0,0,8.08-13.91" transform="translate(0)"/><path class="cls-2" d="M59.79,21,1.27,121.77a9.29,9.29,0,0,0,8,14L124.8,136a11.2,11.2,0,0,0-1.5-5Z" transform="translate(0)"/><g class="cls-3"><g class="cls-4"><path class="cls-5" d="M59.79,21,1.27,121.77a9.29,9.29,0,0,0,8,14L124.8,136a11.2,11.2,0,0,0-1.5-5Z" transform="translate(0)"/></g></g></g></g></svg>